# xmcd
# 
# Track frame offsets:
#   150
#   15033
#   29294
#   45946
#   69349
#   89377
#   107037
#   127769
#   142687
#   161815
#   182381
#   200159
#   217487
#   235489
#   249817
# 
# Disc length: 3535 seconds
# 
# Revision: 1
# Processed by: cddbd v1.5.2PL0 Copyright (c) Steve Scherf et al.
# Submitted via: Synapstar 1.0 
# 
DISCID=bd0dcd0f
DTITLE=Various Artist - CB60325
DYEAR=1900
DGENRE=Country
TTITLE0=Lawrence, Tracy - It's All How You Look At It
TTITLE1=Trick Pony - Bride, The
TTITLE2=Allan, Gary - Nothing On But The Radio
TTITLE3=McGraw, Tim - Live Like You Were Dying
TTITLE4=Sugarland - Baby Girl
TTITLE5=Rushlow, Tim - Sweet Summer Rain
TTITLE6=Kid Rock - Single Father
TTITLE7=Buffett, Jimmy and C.Black - Hey Good Lookin'
TTITLE8=Tyler, Ryan - Last Thing She Said, The
TTITLE9=Lonestar - Somebody's Someone
TTITLE10=Rogers, Kenny and Whitney - My World Is Over
TTITLE11=Montgomery Gentry - You Do Your Thing
TTITLE12=Elam, Katrina - I Won't Say Goodbye
TTITLE13=Lawson, Shannon - Just Like A Redneck
TTITLE14=Bryant, Keith - Ridin' With The Legend
EXTD=MediaType: Karaoke CD+G Producer: Chartbuster
EXTT0=
EXTT1=
EXTT2=
EXTT3=
EXTT4=
EXTT5=
EXTT6=
EXTT7=
EXTT8=
EXTT9=
EXTT10=
EXTT11=
EXTT12=
EXTT13=
EXTT14=
PLAYORDER=
